<svg width="240" height="239" viewBox="0 0 240 239" fill="none" xmlns="http://www.w3.org/2000/svg">
<path d="M175.098 42.6462L166.412 0H73.5877L64.9015 42.6462H55.3846V26.0308H18.4615V42.6462H0V200.428C0 221.331 15.0092 238.338 33.4615 238.338H206.538C224.991 238.338 240 221.331 240 200.428V42.6462H175.098ZM81.1246 9.23077H158.875L165.688 42.6415H74.3169L81.1246 9.23077ZM27.6923 35.2615H46.1538V42.6462H27.6923V35.2615ZM230.769 200.428C230.769 216.24 219.9 229.108 206.538 229.108H33.4615C20.1 229.108 9.23077 216.24 9.23077 200.428V51.8769H230.769V200.428Z" fill="white"/>
<path d="M120 173.723C137.811 173.723 152.308 159.231 152.308 141.415C152.308 123.6 137.811 109.108 120 109.108C102.189 109.108 87.6923 123.6 87.6923 141.415C87.6923 159.231 102.189 173.723 120 173.723ZM120 118.338C132.725 118.338 143.077 128.691 143.077 141.415C143.077 154.14 132.725 164.492 120 164.492C107.275 164.492 96.9231 154.14 96.9231 141.415C96.9231 128.691 107.275 118.338 120 118.338Z" fill="white"/>
<path d="M198.462 95.2615C208.643 95.2615 216.923 86.9815 216.923 76.8C216.923 66.6185 208.643 58.3385 198.462 58.3385C188.28 58.3385 180 66.6185 180 76.8C180 86.9815 188.28 95.2615 198.462 95.2615ZM198.462 67.5692C203.552 67.5692 207.692 71.7092 207.692 76.8C207.692 81.8908 203.552 86.0308 198.462 86.0308C193.371 86.0308 189.231 81.8908 189.231 76.8C189.231 71.7092 193.371 67.5692 198.462 67.5692Z" fill="white"/>
</svg>
